<?xml version="1.0" encoding="utf-8"?>
<!-- Generator: Adobe Illustrator 21.0.0, SVG Export Plug-In . SVG Version: 6.00 Build 0)  -->
<svg version="1.1" id="Capa_1" xmlns="http://www.w3.org/2000/svg" xmlns:xlink="http://www.w3.org/1999/xlink" x="0px" y="0px"
	 viewBox="0 0 612 792" style="enable-background:new 0 0 612 792;" xml:space="preserve">
<style type="text/css">
	.st0{fill:#FFFFFF;}
	.st1{fill:#224AF6;}
	.st2{fill:#FEFEFF;}
	.st3{fill:#254DF6;}
	.st4{fill:#254CF6;}
	.st5{fill:#264DF6;}
	.st6{fill:#274DF6;}
	.st7{fill:#FCFCFF;}
	.st8{fill:#F9FAFF;}
	.st9{fill:#FCFDFF;}
	.st10{fill:#F7F8FF;}
	.st11{fill:#F6F8FF;}
	.st12{fill:#F6F7FF;}
	.st13{fill:#F4F6FE;}
	.st14{fill:#2149F6;}
</style>
<g>
	<g>
		<path class="st0" d="M602.6,691.4c-197.4,0-394.9,0-592.3,0c0-196.6,0-393.3,0-589.9c197.4,0,394.9,0,592.3,0
			C602.6,298.2,602.6,494.8,602.6,691.4z M306.8,129.4C154.1,129.7,33,253.5,32.8,403c-0.3,151.4,122.6,274.5,273.9,274.7
			c149.9,0.1,274.2-121.1,274.3-274C581,252.1,458.4,129.6,306.8,129.4z"/>
		<path class="st1" d="M306.8,129.4c151.6,0.2,274.2,122.7,274.1,274.2c-0.1,152.9-124.4,274.1-274.3,274
			C155.3,677.5,32.5,554.4,32.8,403C33,253.5,154.1,129.7,306.8,129.4z M551.3,403.7c0.1-134.9-109.2-244.4-244-244.6
			C171.6,158.9,62.5,269.1,62.4,403.3C62.3,538.2,171.9,647.9,306.7,648C440.9,648.1,551.2,539.3,551.3,403.7z"/>
		<path class="st2" d="M551.3,403.7C551.2,539.3,440.9,648.1,306.7,648C171.9,647.9,62.3,538.2,62.4,403.3
			c0.1-134.2,109.2-244.4,244.9-244.2C442.1,159.3,551.4,268.8,551.3,403.7z M305.9,251.1c-13.4,0-26.6,1.7-39.6,5.1
			c-61.8,16.2-111,71-114.2,140.5c-0.6,13.3,0.4,26.5,3.4,39.6c8,35.3,26.3,64.3,54.6,86.7c25.1,19.9,53.8,30.7,85.7,32.8
			c13.8,0.9,27.5,0.1,41-2.7c27.5-5.6,51.8-17.7,72.5-36.6c30.1-27.4,46.9-61.5,50.1-102.1c1.1-13.8,0.2-27.5-2.6-41
			c-7.3-35.2-25-64.3-52.7-87.1C375.7,262.7,342.7,251.3,305.9,251.1z M178.7,579.4c0.3,0.2,0.5,0.3,0.7,0.4
			c5.4,3.4,10.9,6.7,16.3,10.1c0.6,0.4,1.3,0.7,1.9,0.9c4,1.5,8.2,0.3,11.1-3c2.7-3.2,3.1-7.4,0.8-10.9c-0.2-0.3-0.3-0.7-0.5-1
			c3.7-0.5,5.6-1.4,7.1-3.3c3.1-3.7,2.7-9.4-1.3-12.4c-5.4-3.9-11.2-7.3-16.8-11c-0.1,0-0.1,0-0.5,0
			C191.4,559.1,185.1,569.1,178.7,579.4z M181.4,248.2c0.1-0.1,0.3-0.3,0.4-0.4c1.8,0.7,3.5,1.4,5.3,2c5.8,2.3,11.6,4.6,17.4,6.8
			c0.8,0.3,1.5,0.9,2.4,0.1c1.6-1.3,3.3-2.5,5-3.8c-7.2-9.6-14.3-19-21.4-28.6c-1.9,1.4-3.6,2.7-5.4,4c4.7,6.3,9.2,12.3,13.7,18.3
			c-0.9,0.1-1.6-0.1-2.3-0.3c-5.9-2.4-11.9-4.7-17.8-7.1c-1.8-0.7-3.7-1.2-5.6-1.9c-1.6,1.2-3.2,2.4-4.8,3.6
			c-0.1,0.1-0.2,0.3-0.4,0.6c7.1,9.4,14.2,18.9,21.3,28.4c1.9-1.5,3.6-2.7,5.4-4C190.2,260,185.8,254.1,181.4,248.2z M268.4,618.5
			c0.4,0.2,0.7,0.4,0.9,0.4c4.8,0.5,9.7,1.1,14.5,1.4c6.9,0.5,11.8-2.5,14.4-8.9c2.1-5.2,2.6-10.6,1.3-16c-1.5-6-5.2-9.8-11.5-10.6
			c-2-0.3-4-0.5-5.9-0.7c-3.3-0.3-6.6-0.6-10.1-1C270.7,595.1,269.6,606.8,268.4,618.5z M111.5,348.8c-8.2,0.3-14.1,4.7-16.3,12.6
			c-0.3,1.1-0.6,2.3-0.8,3.5c-1,7.4,2.5,14,9.3,16.9c2.7,1.1,5.6,1.9,8.5,2.3c5.4,0.7,10.3-0.5,14.3-4.6c2.5-2.6,3.8-5.8,4.6-9.3
			c1.9-9-2.3-16.5-11-19.5C117.3,349.8,114.4,349.5,111.5,348.8z M152.7,521c3.4-2,5.5-4.8,5.4-8.6c0-6.2-2.9-11.2-7.7-15
			c-1.7-1.3-3.8-1.7-5.9-1.6c-5.6,0.4-9.4,5.3-8.7,11.3c0.2,1.9,0.7,3.8,1.1,5.6c0.4,2,0.9,4,1.2,6.1c0.5,3.4-2.7,5.2-5.7,3.9
			c-4.7-2.1-6.1-8.8-2.8-12.6c0.4-0.5,0.9-0.9,1.4-1.5c-0.6-1-1.2-1.9-1.9-2.8c-0.7-1-1.3-1.9-2-2.8c-3.8,2.4-5.8,5.5-6.3,9.5
			c-0.6,5.5,4.4,14.6,9.5,17c6.6,3.1,14.4-1.6,14.9-7.7c0.2-2.1-0.1-4.3-0.4-6.4c-0.5-3.1-1.3-6.1-1.9-9.1c-0.3-1.3,0.1-2.6,1.4-3.3
			c1.3-0.7,2.5-0.3,3.5,0.6c1.9,1.6,3.1,3.7,3.5,6.1c0.4,2.2-0.9,3.6-2.2,5c0,0,0,0.1-0.1,0.4C150.2,516.9,151.4,518.9,152.7,521z
			 M326.3,598.6c-0.4-2.7-0.7-5.1-1-7.7c6.4-0.8,12.7-1.7,19.1-2.5c-0.3-2.2-0.6-4-0.9-6c-8.9,1.2-17.5,2.1-26.2,3.4
			c1.5,12,3,23.7,4.6,35.4c9.1-1.1,17.9-2.3,26.9-3.4c-0.3-2.1-0.5-4-0.8-6c-6.8,0.7-13.2,1.8-19.8,2.3c-0.4-3.3-0.8-6.4-1.1-9.5
			c6.1-0.8,11.9-1.5,17.7-2.3c-0.3-2.1-0.6-4-0.8-6C338,597.2,332.2,597.9,326.3,598.6z M493.6,334.6c-2.3-5.6-4.6-11-6.9-16.6
			c2.5-1,4.8-2,7.3-3c2.5,6,5,11.8,7.5,17.7c2-0.8,3.7-1.5,5.6-2.3c-3.5-8.3-6.8-16.3-10.3-24.5c-11.1,4.6-21.9,9.2-33,13.8
			c3.5,8.4,7,16.7,10.5,25.1c1.9-0.8,3.7-1.6,5.5-2.4c-2.6-6.2-5.1-12.2-7.7-18.4c3-1.3,5.9-2.5,8.9-3.7c2.4,5.6,4.6,11,7,16.5
			C490,336.1,491.6,335.4,493.6,334.6z M176.8,281.5c-1.7-1.3-3.1-2.5-4.7-3.8c-4.3,5.2-8.4,10.3-12.6,15.4c-2.6-2.1-5-4.1-7.5-6.1
			c3.8-4.7,7.5-9.2,11.3-13.9c-1.6-1.3-3-2.5-4.7-3.8c-3.8,4.7-7.6,9.2-11.4,13.9c-2.1-1.8-4.1-3.3-6.1-5c4.2-5.1,8.1-10,12.2-15
			c-1.7-1.3-3.1-2.5-4.7-3.8c-5.6,6.9-11.1,13.7-16.7,20.5c9.3,7.6,18.5,15,27.7,22.6C165.4,295.5,171,288.6,176.8,281.5z
			 M393,237.1c4.3,2.5,8.4,4.8,12.4,7.1c-0.4,3-0.9,5.8-1.3,8.6c2.3,1.3,4.5,2.5,6.9,3.9c1.8-13,3.6-25.6,5.3-38.3
			c-2.3-1.3-4.5-2.5-6.7-3.8c-9.9,8-19.8,16-29.9,24.2c2.4,1.4,4.5,2.6,6.7,3.8C388.6,240.8,390.7,239,393,237.1z M180,533.8
			c-2-1.8-3.9-3.5-5.7-5.1c-11.4,5.8-22.7,11.5-34.3,17.3c2.1,1.9,3.9,3.6,5.7,5.2c2.7-1.4,5.2-2.7,7.7-4c3.6,3.3,7.1,6.4,10.5,9.5
			c-1.1,2.9-2,5.5-3,8.1c2,1.8,3.6,3.7,5.9,5.1C171.2,557.8,175.5,545.9,180,533.8z M253.9,612.8c-1.3-13-2.5-25.7-3.7-38.4
			c-2.5-0.7-4.9-1.4-7.4-2.2c-7.8,10.2-15.5,20.1-23.4,30.4c2.7,0.8,5,1.4,7.4,2.1c1.8-2.4,3.5-4.6,5.2-6.9c4.6,1.4,9,2.7,13.6,4
			c0.3,3,0.5,5.8,0.8,8.7C248.9,611.3,251.1,612,253.9,612.8z M505.4,489.6c-3.8-4.7-25.3-26.4-27-27.2c-1,2.2-2,4.3-3,6.5
			c2.1,2.1,4.1,4.2,6.1,6.2c-2,4.4-4,8.6-5.9,12.9c-3-0.2-5.9-0.3-8.7-0.5c-1.1,2.4-2.1,4.7-3.2,7.2c13,0.6,25.7,1.2,38.6,1.8
			C503.3,494.1,504.3,491.9,505.4,489.6z M255.3,196.1c0.8,5.3,1.5,10.2,2.4,15.1c0.7,3.8,1.4,7.5,2.3,11.2c1.1,4.2,4,6.7,8.3,7.4
			c4.8,0.8,9.4,0,13.7-2.2c3.6-1.9,5.4-5.1,5.3-9.2c0-1.4-0.1-2.7-0.3-4.1c-0.9-5.8-1.8-11.7-2.7-17.5c-0.3-1.7-0.6-3.4-1-5.2
			c-2.5,0.4-4.7,0.8-7,1.2c0.9,5.6,1.8,10.9,2.6,16.2c0.5,2.9,0.8,5.8,1.2,8.8c0.2,1.5-0.3,2.8-1.3,4c-2.1,2.3-7.3,2.9-9.8,1.1
			c-0.9-0.7-1.6-1.7-2.2-2.8c-0.4-0.7-0.5-1.5-0.6-2.3c-1-5.7-1.9-11.5-2.9-17.2c-0.3-1.8-0.6-3.5-1-5.4
			C259.8,195.3,257.6,195.7,255.3,196.1z M506.6,456.8c0.4,0.1,0.5,0.2,0.7,0.1c4.8-0.6,8.4-3.1,10.4-7.5c3.2-7.1,2.3-15.6-4.3-20.3
			c-5.9-4.3-12.6-5.5-19.6-3.7c-6.8,1.8-10.8,7.2-11.4,14.9c-0.5,6.7,2.9,11.9,9.3,14.4c0.3-0.4,0.6-0.9,0.8-1.4
			c0.8-1.6,1.6-3.3,2.4-5c-0.8-0.5-1.5-0.8-2.2-1.2c-3.2-1.9-4.5-4.5-4-8c0.5-3.3,2.7-5.9,6.2-6.5c4.9-0.9,9.8-0.3,14.2,2.2
			c3.1,1.7,4.4,4.6,3.9,8.1c-0.5,3.7-2.4,5.8-6.1,6.7c-0.3,0.1-0.6,0.2-0.9,0.4C506.2,452.3,506.4,454.6,506.6,456.8z M145.3,326
			c-2.3-3.1-25.2-26.1-26.7-27c-1,2.1-2.1,4.3-3.1,6.4c1.7,1.7,3.2,3.3,4.8,4.9c1.6,1.6,3.2,3.1,4.8,4.7c1.7,1.6,3.3,3.2,5,4.9
			c1.5,1.5,3.2,3,4.6,4.6c-0.1,0.1-0.2,0.3-0.3,0.4c-8.9-1.1-17.9-2.2-26.8-3.2c-1.2,2.4-2.2,4.5-3.4,7c12.8,1.4,25.3,2.8,37.8,4.1
			C143.2,330.4,144.2,328.2,145.3,326z M429.5,272.7c6.9-7.4,13.4-14.7,20.1-21.9c2.7,2.5,5.2,4.7,7.8,7.1c1.4-1.5,2.7-3,4.1-4.5
			c-7-6.4-14-12.8-21-19.2c-1.5,1.6-2.7,3-4.1,4.5c2.6,2.5,5.1,4.8,7.7,7.2c-6.7,7.4-13.3,14.6-20,21.9
			C426,269.5,427.7,271,429.5,272.7z M511.8,359.7c-9.8,2-19.4,3.9-29.2,5.9c0.5,2.5,1,4.8,1.5,7.1c9.8-2,19.4-3.9,29.1-5.8
			c0.7,3.5,1.4,6.8,2.2,10.3c2.1-0.4,4-0.8,6-1.2c-1.9-9.5-3.8-18.6-5.7-27.9c-2.1,0.5-4,0.8-5.9,1.3
			C510.5,352.9,511.1,356.2,511.8,359.7z M238,206.7c-0.8-1.9-1.6-3.6-2.4-5.6c-8.8,3.8-17.4,7.5-26.1,11.2c0.9,2,1.7,3.7,2.5,5.5
			c3.4-1.4,6.4-2.7,9.7-4.1c4,9.2,7.8,18.2,11.8,27.3c2.4-1,4.4-2,6.6-2.9c-3.9-9.2-7.8-18.2-11.7-27.3
			C231.6,209.4,234.7,208.1,238,206.7z M319.4,226c0.2-4.9,0.3-9.7,0.5-14.6c0.1-4.9,0-9.8,0.5-14.8c3.6,0,6.9,0,10.4,0
			c0-2,0-3.8,0-5.9c-9.4-0.2-18.6-0.5-28.1-0.7c0,2.1,0,3.9,0,5.9c3.4,0.4,6.8,0,10.3,0.6c-0.2,9.9-0.5,19.6-0.7,29.5
			C314.6,226,316.8,226,319.4,226z M402.9,557.8c7.2,9.5,14.3,18.8,21.5,28.3c6.8-5.1,13.4-10.1,20.1-15.2c-1.3-1.7-2.5-3.2-3.7-4.8
			c-4.8,3.6-9.5,7.1-14.3,10.8c-6-7.8-11.8-15.6-17.8-23.4C406.8,554.9,405,556.3,402.9,557.8z M446.9,290.1
			c5.1,7,9.9,13.6,14.9,20.4c1.8-1.3,3.3-2.4,4.9-3.6c-3.6-4.9-7-9.7-10.5-14.5c8.1-5.9,15.9-11.5,23.8-17.3c-1.5-2-2.8-3.9-4.3-5.9
			C466,276.2,456.6,283.1,446.9,290.1z M383.3,600.9c-3.6-9.1-7.2-18.1-10.9-27.3c-2.3,0.9-4.4,1.8-6.8,2.7c4.4,11.1,8.7,22,13.1,33
			c7.9-3.1,15.6-6.1,23.4-9.2c-0.8-2-1.5-3.8-2.2-5.6C394.4,596.6,389,598.7,383.3,600.9z M116,428.1c6.1,0.7,10.5-2.4,11.7-8
			c0.5-2.3,0.4-4.6-0.2-6.9c-0.9-3.5-3.1-5.9-6.6-7c-1.7-0.5-3.6-0.8-5.4-0.8c-7-0.2-14.1-0.4-21.1-0.5c-0.8,0-1.5,0-2.5,0
			c0,2.5,0,4.8,0,7.1c7.4,0.2,14.6,0.3,21.7,0.5c1.6,0,3.2,0.2,4.8,0.4c2.4,0.4,3.3,1.6,3.4,3.9c0,2.3-1.1,3.8-3.4,4.3
			c-0.9,0.2-1.9,0.3-3,0.5C115.6,423.9,115.8,426,116,428.1z M488.4,406.3c12.1-0.3,23.8-0.6,35.6-0.8c0-2.2,0-4,0-5.8
			c0-0.4-0.1-0.8-0.2-1.4c-11.8,0.3-23.6,0.5-35.4,0.8C488.4,401.5,488.4,403.7,488.4,406.3z M372,214.7c-2.1-3.2-4.1-6.2-6.1-9.2
			c-3.2,2.1-6.1,4-9.1,6c2.1,3.1,4,6.1,6,9.2C365.9,218.7,368.8,216.8,372,214.7z M465.4,523.6c-3.7,0.9-7.1,1.6-10.7,2.4
			c0.8,3.7,1.6,7.1,2.4,10.7c3.7-0.8,7.1-1.6,10.7-2.4C467,530.7,466.3,527.3,465.4,523.6z M110.3,471.4c3.7,0.5,7.2,1,10.9,1.2
			c0.4-3.7,0.8-7.1,1.2-10.8c-3.7-0.4-7.1-0.8-10.8-1.3C111.1,464.2,110.7,467.7,110.3,471.4z"/>
		<path class="st1" d="M305.9,251.1c36.8,0.3,69.8,11.7,98.2,35.1c27.7,22.8,45.4,51.9,52.7,87.1c2.8,13.6,3.7,27.3,2.6,41
			c-3.2,40.6-20,74.7-50.1,102.1c-20.7,18.9-45.1,31-72.5,36.6c-13.5,2.8-27.2,3.6-41,2.7c-32-2.1-60.7-12.9-85.7-32.8
			c-28.3-22.5-46.7-51.4-54.6-86.7c-2.9-13-4-26.2-3.4-39.6c3.3-69.5,52.4-124.3,114.2-140.5C279.2,252.7,292.5,251,305.9,251.1z
			 M306.6,531.3c4-0.2,8-0.3,11.9-0.7c10.5-1,20.8-3.2,30.8-6.7c21.9-7.7,40.4-20.4,55.4-38c9.4-11,16.7-23.4,21.9-36.9
			c5.6-14.4,8.1-29.3,8.4-44.6c0-2-0.2-4-0.3-6c-0.4-4.5-0.5-9.1-1.2-13.6c-1.7-10.6-4.6-20.8-8.8-30.7
			c-7.5-17.4-18.3-32.3-32.4-44.9c-9.6-8.6-20.3-15.5-32-20.9c-16.6-7.6-34.1-11.4-52.4-11.7c-8.9-0.1-17.7,0.7-26.4,2.5
			c-13.4,2.7-26.1,7.3-38,14.1c-12.8,7.3-24.1,16.4-33.8,27.6c-9.4,10.8-16.8,22.7-22.1,36c-6.7,16.8-10,34.2-8.9,52.4
			c0.2,3.9,0.5,7.8,1,11.7c1.2,10.6,4,20.8,8.1,30.7c7.2,17.6,17.7,32.8,31.7,45.7c8.5,7.8,17.7,14.4,27.9,19.7
			C265.9,526.3,285.7,531.1,306.6,531.3z"/>
		<path class="st3" d="M178.7,579.4c6.4-10.2,12.7-20.2,18.9-30.1c0.3,0,0.4,0,0.5,0c5.6,3.6,11.4,7,16.8,11c4.1,3,4.4,8.7,1.3,12.4
			c-1.5,1.9-3.4,2.7-7.1,3.3c0.2,0.4,0.3,0.7,0.5,1c2.3,3.5,1.9,7.7-0.8,10.9c-2.8,3.3-7.1,4.5-11.1,3c-0.7-0.2-1.3-0.5-1.9-0.9
			c-5.4-3.3-10.9-6.7-16.3-10.1C179.2,579.6,179,579.5,178.7,579.4z M188.1,578.1c3.4,2,6.5,4,9.8,5.8c2.2,1.2,4.1,0.5,5.4-1.4
			c1.5-2.1,1.4-4.3-0.6-6c-2.8-2.6-6.2-4.3-9.5-6.5C191.4,572.8,189.8,575.3,188.1,578.1z M196.3,564.9c2.9,1.8,5.5,3.4,8.2,5
			c0.6,0.4,1.3,0.6,2,0.6c1.9,0.2,3.2-0.6,4-2.4c0.7-1.6,0.6-3.3-0.9-4.3c-2.9-2.1-5.9-4-9-6C199.2,560.3,197.9,562.5,196.3,564.9z"
			/>
		<path class="st4" d="M181.4,248.2c4.4,5.9,8.8,11.7,13.3,17.8c-1.8,1.3-3.4,2.6-5.4,4c-7.1-9.5-14.2-19-21.3-28.4
			c0.2-0.3,0.3-0.5,0.4-0.6c1.6-1.2,3.2-2.4,4.8-3.6c1.9,0.6,3.8,1.1,5.6,1.9c6,2.3,11.9,4.7,17.8,7.1c0.6,0.3,1.3,0.4,2.3,0.3
			c-4.5-6-9-12.1-13.7-18.3c1.8-1.3,3.5-2.6,5.4-4c7.2,9.6,14.3,19,21.4,28.6c-1.8,1.3-3.4,2.6-5,3.8c-0.9,0.7-1.7,0.2-2.4-0.1
			c-5.8-2.3-11.6-4.6-17.4-6.8c-1.8-0.7-3.5-1.4-5.3-2C181.7,248,181.6,248.1,181.4,248.2z"/>
		<path class="st5" d="M268.4,618.5c1.2-11.7,2.3-23.4,3.5-35.3c3.5,0.3,6.8,0.6,10.1,1c2,0.2,4,0.5,5.9,0.7
			c6.3,0.8,10.1,4.6,11.5,10.6c1.3,5.4,0.8,10.8-1.3,16c-2.6,6.3-7.5,9.4-14.4,8.9c-4.9-0.4-9.7-0.9-14.5-1.4
			C269.1,618.8,268.9,618.7,268.4,618.5z M276.2,613.2c0.4,0.2,0.6,0.3,0.8,0.3c2.2,0.2,4.4,0.5,6.7,0.6c4.3,0.2,6.4-1.3,7.7-5.3
			c1.2-3.7,1.5-7.5,1.1-11.4c-0.3-3-1.8-5.3-4.8-6.2c-2.9-0.9-5.9-1.2-9.2-1.1C277.8,597.9,277,605.5,276.2,613.2z"/>
		<path class="st5" d="M111.5,348.8c2.9,0.6,5.8,1,8.6,1.9c8.7,2.9,12.8,10.5,11,19.5c-0.7,3.5-2,6.7-4.6,9.3
			c-3.9,4-8.9,5.3-14.3,4.6c-2.9-0.4-5.8-1.1-8.5-2.3c-6.8-2.9-10.4-9.6-9.3-16.9c0.2-1.2,0.4-2.4,0.8-3.5
			C97.4,353.6,103.3,349.2,111.5,348.8z M125.2,365.6c0-2.2-1.8-4.8-4.8-6.6c-3.1-1.8-6.6-2.5-10.1-2.5c-5.2,0.1-8.5,3-9.5,8.1
			c-0.8,4.4,1.3,8.4,5.8,10.4c2.6,1.2,5.5,1.8,8.4,1.8C121,377,125.2,372.9,125.2,365.6z"/>
		<path class="st5" d="M152.7,521c-1.3-2.1-2.4-4.1-3.5-5.9c0.1-0.3,0.1-0.4,0.1-0.4c1.4-1.4,2.6-2.9,2.2-5
			c-0.5-2.4-1.6-4.5-3.5-6.1c-1-0.9-2.3-1.3-3.5-0.6c-1.2,0.7-1.6,2-1.4,3.3c0.6,3.1,1.4,6.1,1.9,9.1c0.3,2.1,0.6,4.3,0.4,6.4
			c-0.5,6.1-8.4,10.8-14.9,7.7c-5.1-2.4-10.1-11.4-9.5-17c0.5-3.9,2.5-7.1,6.3-9.5c0.6,0.9,1.3,1.9,2,2.8c0.6,0.9,1.2,1.8,1.9,2.8
			c-0.5,0.6-1,1-1.4,1.5c-3.4,3.8-1.9,10.5,2.8,12.6c3,1.4,6.2-0.4,5.7-3.9c-0.3-2-0.8-4.1-1.2-6.1c-0.4-1.9-0.9-3.7-1.1-5.6
			c-0.7-6,3.1-10.9,8.7-11.3c2.1-0.2,4.2,0.2,5.9,1.6c4.9,3.8,7.7,8.8,7.7,15C158.1,516.2,156,519,152.7,521z"/>
		<path class="st5" d="M326.3,598.6c5.9-0.7,11.7-1.4,17.7-2.2c0.3,2,0.5,3.9,0.8,6c-5.9,0.8-11.6,1.5-17.7,2.3
			c0.4,3.1,0.7,6.1,1.1,9.5c6.6-0.5,13-1.6,19.8-2.3c0.3,1.9,0.5,3.9,0.8,6c-9,1.1-17.8,2.2-26.9,3.4c-1.6-11.7-3.1-23.4-4.6-35.4
			c8.7-1.3,17.3-2.2,26.2-3.4c0.3,2,0.6,3.8,0.9,6c-6.4,0.8-12.7,1.6-19.1,2.5C325.6,593.5,325.9,595.9,326.3,598.6z"/>
		<path class="st6" d="M493.6,334.6c-1.9,0.8-3.6,1.5-5.5,2.3c-2.3-5.6-4.6-11-7-16.5c-3,1.3-5.9,2.5-8.9,3.7
			c2.6,6.2,5.1,12.1,7.7,18.4c-1.8,0.8-3.6,1.5-5.5,2.4c-3.5-8.4-7-16.6-10.5-25.1c11-4.6,21.9-9.2,33-13.8
			c3.4,8.2,6.8,16.2,10.3,24.5c-1.9,0.8-3.6,1.5-5.6,2.3c-2.5-6-5-11.8-7.5-17.7c-2.4,1-4.8,2-7.3,3
			C489,323.6,491.2,329,493.6,334.6z"/>
		<path class="st5" d="M176.8,281.5c-5.8,7.1-11.4,14-17.2,21.1c-9.3-7.6-18.4-15-27.7-22.6c5.6-6.9,11.1-13.6,16.7-20.5
			c1.6,1.3,3.1,2.4,4.7,3.8c-4.1,5-8,9.9-12.2,15c2,1.7,4,3.2,6.1,5c3.8-4.7,7.5-9.2,11.4-13.9c1.6,1.3,3.1,2.5,4.7,3.8
			c-3.8,4.7-7.5,9.2-11.3,13.9c2.5,2.1,4.9,4,7.5,6.1c4.2-5.1,8.3-10.2,12.6-15.4C173.7,279,175.2,280.2,176.8,281.5z"/>
		<path class="st5" d="M393,237.1c-2.3,1.9-4.4,3.7-6.6,5.6c-2.2-1.2-4.3-2.4-6.7-3.8c10.1-8.2,20-16.2,29.9-24.2
			c2.2,1.2,4.3,2.5,6.7,3.8c-1.8,12.6-3.5,25.3-5.3,38.3c-2.4-1.3-4.6-2.6-6.9-3.9c0.4-2.8,0.8-5.6,1.3-8.6
			C401.3,241.9,397.3,239.6,393,237.1z M406.4,237.7c0.7-4.6,1.4-8.8,2.1-13.1c-0.2-0.1-0.3-0.2-0.5-0.3c-3.3,2.8-6.6,5.6-10.1,8.5
			C400.8,234.6,403.4,236,406.4,237.7z"/>
		<path class="st5" d="M180,533.8c-4.4,12.1-8.8,24-13.2,36.1c-2.3-1.5-3.9-3.3-5.9-5.1c1-2.6,1.9-5.2,3-8.1
			c-3.4-3.1-6.9-6.2-10.5-9.5c-2.5,1.3-5,2.6-7.7,4c-1.7-1.6-3.6-3.2-5.7-5.2c11.5-5.8,22.8-11.5,34.3-17.3
			C176.1,530.4,177.9,532,180,533.8z M159,544.1c2.6,2.3,4.8,4.3,7.2,6.5c1.7-4.4,3.3-8.4,4.9-12.4c-0.1-0.1-0.2-0.2-0.3-0.3
			C167,539.9,163.2,541.9,159,544.1z"/>
		<path class="st5" d="M253.9,612.8c-2.8-0.8-5.1-1.5-7.5-2.2c-0.3-2.9-0.5-5.7-0.8-8.7c-4.5-1.3-8.9-2.6-13.6-4
			c-1.7,2.3-3.4,4.5-5.2,6.9c-2.3-0.7-4.7-1.3-7.4-2.1c7.9-10.3,15.6-20.3,23.4-30.4c2.4,0.7,4.9,1.4,7.4,2.2
			C251.5,587.2,252.7,599.8,253.9,612.8z M244.8,595.4c0.4-2.8-0.4-11.5-1.2-13.3c-2.6,3.5-5.1,7-7.8,10.6
			C239,593.7,241.9,594.5,244.8,595.4z"/>
		<path class="st5" d="M505.4,489.6c-1.1,2.3-2.1,4.5-3.1,6.8c-12.8-0.6-25.5-1.2-38.6-1.8c1.1-2.5,2.1-4.7,3.2-7.2
			c2.9,0.2,5.7,0.3,8.7,0.5c1.9-4.2,3.9-8.4,5.9-12.9c-2-2-4-4-6.1-6.2c1-2.2,2-4.3,3-6.5C480.1,463.2,501.6,484.9,505.4,489.6z
			 M495.2,489.3c-2.9-3.2-5.8-6.4-8.8-9.7c-1.9,3-3.5,7-3.7,8.7C487,488.7,491.3,489,495.2,489.3z"/>
		<path class="st5" d="M255.3,196.1c2.3-0.4,4.5-0.8,7-1.2c0.3,1.9,0.7,3.7,1,5.4c1,5.7,1.9,11.5,2.9,17.2c0.1,0.8,0.2,1.6,0.6,2.3
			c0.6,1,1.3,2.1,2.2,2.8c2.5,1.9,7.7,1.2,9.8-1.1c1-1.1,1.5-2.5,1.3-4c-0.4-2.9-0.7-5.9-1.2-8.8c-0.8-5.3-1.7-10.5-2.6-16.2
			c2.3-0.4,4.5-0.7,7-1.2c0.4,1.9,0.7,3.5,1,5.2c0.9,5.8,1.8,11.7,2.7,17.5c0.2,1.3,0.3,2.7,0.3,4.1c0.1,4.2-1.7,7.3-5.3,9.2
			c-4.3,2.2-8.9,3.1-13.7,2.2c-4.2-0.7-7.2-3.2-8.3-7.4c-1-3.7-1.7-7.5-2.3-11.2C256.8,206.3,256.1,201.4,255.3,196.1z"/>
		<path class="st5" d="M506.6,456.8c-0.2-2.2-0.4-4.5-0.6-6.9c0.4-0.2,0.7-0.3,0.9-0.4c3.7-1,5.7-3,6.1-6.7c0.4-3.5-0.9-6.4-3.9-8.1
			c-4.4-2.5-9.2-3.1-14.2-2.2c-3.4,0.6-5.7,3.3-6.2,6.5c-0.5,3.5,0.8,6.1,4,8c0.7,0.4,1.4,0.8,2.2,1.2c-0.8,1.7-1.6,3.3-2.4,5
			c-0.2,0.5-0.6,0.9-0.8,1.4c-6.5-2.5-9.8-7.7-9.3-14.4c0.6-7.7,4.5-13.1,11.4-14.9c7-1.8,13.7-0.6,19.6,3.7
			c6.5,4.7,7.5,13.2,4.3,20.3c-2,4.4-5.6,6.9-10.4,7.5C507.2,456.9,507,456.8,506.6,456.8z"/>
		<path class="st5" d="M145.3,326c-1,2.1-2.1,4.4-3.3,6.8c-12.5-1.4-25-2.7-37.8-4.1c1.2-2.5,2.2-4.6,3.4-7
			c8.9,1.1,17.9,2.2,26.8,3.2c0.1-0.1,0.2-0.3,0.3-0.4c-1.4-1.7-3.1-3.1-4.6-4.6c-1.6-1.6-3.3-3.2-5-4.9c-1.6-1.6-3.2-3.1-4.8-4.7
			c-1.6-1.6-3.1-3.2-4.8-4.9c1-2.1,2-4.2,3.1-6.4C120.1,299.9,143,323,145.3,326z"/>
		<path class="st6" d="M429.5,272.7c-1.9-1.7-3.5-3.2-5.4-4.9c6.7-7.3,13.3-14.6,20-21.9c-2.6-2.5-5.1-4.8-7.7-7.2
			c1.4-1.5,2.6-2.9,4.1-4.5c7,6.4,14,12.8,21,19.2c-1.4,1.6-2.7,3-4.1,4.5c-2.6-2.4-5.1-4.6-7.8-7.1
			C442.9,258,436.4,265.3,429.5,272.7z"/>
		<path class="st5" d="M511.8,359.7c-0.7-3.5-1.3-6.8-2-10.3c2-0.4,3.8-0.8,5.9-1.3c1.9,9.3,3.7,18.4,5.7,27.9c-2,0.4-3.9,0.8-6,1.2
			c-0.8-3.5-1.5-6.9-2.2-10.3c-9.7,2-19.3,3.9-29.1,5.8c-0.5-2.3-1-4.6-1.5-7.1C492.4,363.7,502.1,361.7,511.8,359.7z"/>
		<path class="st6" d="M238,206.7c-3.3,1.4-6.4,2.8-9.7,4.2c3.9,9.1,7.7,18,11.7,27.3c-2.2,0.9-4.2,1.9-6.6,2.9
			c-3.9-9.1-7.8-18.1-11.8-27.3c-3.3,1.4-6.3,2.7-9.7,4.1c-0.8-1.8-1.6-3.6-2.5-5.5c8.7-3.8,17.3-7.4,26.1-11.2
			C236.4,203,237.2,204.8,238,206.7z"/>
		<path class="st5" d="M319.4,226c-2.6,0-4.8,0-7.2,0c0.2-9.9,0.5-19.5,0.7-29.5c-3.5-0.6-6.9-0.2-10.3-0.6c0-2,0-3.9,0-5.9
			c9.4,0.2,18.7,0.5,28.1,0.7c0,2,0,3.9,0,5.9c-3.5,0-6.8,0-10.4,0c-0.5,5-0.4,9.9-0.5,14.8C319.7,216.3,319.6,221.1,319.4,226z"/>
		<path class="st5" d="M402.9,557.8c2-1.5,3.8-2.9,5.8-4.4c6,7.8,11.9,15.6,17.8,23.4c4.8-3.6,9.5-7.1,14.3-10.8
			c1.2,1.6,2.4,3.1,3.7,4.8c-6.7,5.1-13.3,10.1-20.1,15.2C417.2,576.6,410.2,567.3,402.9,557.8z"/>
		<path class="st5" d="M446.9,290.1c9.7-7,19.2-13.9,28.8-20.9c1.5,2,2.8,3.9,4.3,5.9c-7.9,5.8-15.7,11.5-23.8,17.3
			c3.5,4.8,6.9,9.5,10.5,14.5c-1.6,1.2-3.1,2.3-4.9,3.6C456.8,303.8,451.9,297.1,446.9,290.1z"/>
		<path class="st5" d="M383.3,600.9c5.6-2.2,11-4.3,16.7-6.5c0.7,1.9,1.4,3.6,2.2,5.6c-7.8,3.1-15.5,6.1-23.4,9.2
			c-4.4-11.1-8.7-21.9-13.1-33c2.3-0.9,4.4-1.7,6.8-2.7C376.1,582.7,379.7,591.8,383.3,600.9z"/>
		<path class="st5" d="M116,428.1c-0.2-2.2-0.4-4.2-0.6-6.5c1.1-0.2,2-0.3,3-0.5c2.3-0.5,3.4-2,3.4-4.3c0-2.3-0.9-3.5-3.4-3.9
			c-1.6-0.3-3.2-0.4-4.8-0.4c-7.2-0.2-14.4-0.4-21.7-0.5c0-2.4,0-4.6,0-7.1c0.9,0,1.7,0,2.5,0c7,0.2,14.1,0.3,21.1,0.5
			c1.8,0.1,3.7,0.3,5.4,0.8c3.5,1,5.7,3.5,6.6,7c0.6,2.3,0.7,4.6,0.2,6.9C126.5,425.8,122.1,428.9,116,428.1z"/>
		<path class="st4" d="M488.4,406.3c0-2.5,0-4.8,0-7.3c11.8-0.3,23.6-0.5,35.4-0.8c0.1,0.6,0.1,1,0.2,1.4c0,1.8,0,3.7,0,5.8
			C512.3,405.7,500.5,406,488.4,406.3z"/>
		<path class="st6" d="M372,214.7c-3.2,2.1-6.1,4-9.2,6c-2-3.1-4-6-6-9.2c3.1-2,6-3.9,9.1-6C367.9,208.6,369.9,211.5,372,214.7z"/>
		<path class="st6" d="M465.4,523.6c0.8,3.7,1.6,7.1,2.4,10.7c-3.6,0.8-6.9,1.6-10.7,2.4c-0.8-3.6-1.6-7-2.4-10.7
			C458.3,525.2,461.7,524.4,465.4,523.6z"/>
		<path class="st6" d="M110.3,471.4c0.4-3.7,0.9-7.2,1.3-10.8c3.7,0.4,7.1,0.8,10.8,1.3c-0.4,3.7-0.8,7-1.2,10.8
			C117.5,472.5,113.9,471.9,110.3,471.4z"/>
		<path class="st7" d="M306.6,531.3c-20.9-0.2-40.6-5-59.2-14.6c-10.2-5.3-19.5-11.9-27.9-19.7c-14-12.9-24.5-28.1-31.7-45.7
			c-4-9.9-6.8-20.1-8.1-30.7c-0.4-3.9-0.7-7.8-1-11.7c-1.1-18.1,2.2-35.6,8.9-52.4c5.3-13.2,12.7-25.2,22.1-36
			c9.7-11.1,21-20.3,33.8-27.6c11.9-6.7,24.6-11.4,38-14.1c8.7-1.7,17.5-2.6,26.4-2.5c18.3,0.2,35.7,4.1,52.4,11.7
			c11.7,5.3,22.4,12.3,32,20.9c14.1,12.6,24.9,27.5,32.4,44.9c4.2,9.9,7.2,20.1,8.8,30.7c0.7,4.5,0.8,9,1.2,13.6c0.2,2,0.4,4,0.3,6
			c-0.3,15.3-2.9,30.3-8.4,44.6c-5.2,13.5-12.5,25.9-21.9,36.9c-15.1,17.6-33.5,30.3-55.4,38c-10,3.5-20.2,5.7-30.8,6.7
			C314.5,531,310.6,531.1,306.6,531.3z M191.9,364.8c77,0,153.8,0,231,0c-6.6-19.7-17.3-36.5-32.3-50.4
			c-22.5-20.9-49.2-31.9-79.8-32.9C255.7,279.7,207.5,316.1,191.9,364.8z M193.8,447c14.8,41.9,62.9,84.5,127.2,77.4
			c29.8-3.3,54.9-16.4,75.6-38.1c10.5-11.1,23.9-33.2,24.1-39.3C345.1,447,269.5,447,193.8,447z M189.8,435.6c1,0,1.7,0,2.4,0
			c22.6-0.1,45.1-0.3,67.7-0.3c39-0.1,78.1-0.3,117.1-0.4c15.3-0.1,30.6-0.1,45.8-0.2c0.7,0,1.4,0,2.2,0c1.9-7.6,3.4-15.1,3.7-23
			c-81.1,0.1-161.9,0.3-242.9,0.4C186.3,420.3,187.7,427.9,189.8,435.6z M185.6,399.4c81.3-0.3,162.3-0.6,243.4-0.9
			c-0.2-7.7-1.1-15.1-2.9-22.1c-79.4,0-158.5,0-237.6,0C186.7,384,185.8,391.5,185.6,399.4z"/>
		<path class="st8" d="M188.1,578.1c1.8-2.8,3.4-5.3,5.1-8.1c3.3,2.1,6.7,3.9,9.5,6.5c1.9,1.7,2,3.9,0.6,6c-1.3,1.9-3.3,2.6-5.4,1.4
			C194.6,582.1,191.4,580.1,188.1,578.1z"/>
		<path class="st8" d="M196.3,564.9c1.5-2.4,2.9-4.6,4.4-7.1c3.1,2,6.1,3.9,9,6c1.5,1.1,1.6,2.7,0.9,4.3c-0.8,1.7-2.2,2.6-4,2.4
			c-0.7-0.1-1.4-0.3-2-0.6C201.9,568.3,199.2,566.7,196.3,564.9z"/>
		<path class="st7" d="M276.2,613.2c0.8-7.6,1.5-15.3,2.3-23.1c3.3,0,6.3,0.3,9.2,1.1c3,0.9,4.5,3.3,4.8,6.2
			c0.4,3.8,0.1,7.7-1.1,11.4c-1.3,4-3.5,5.5-7.7,5.3c-2.2-0.1-4.4-0.4-6.7-0.6C276.9,613.5,276.6,613.3,276.2,613.2z"/>
		<path class="st9" d="M125.2,365.6c0,7.3-4.2,11.4-10.3,11.3c-2.9,0-5.7-0.6-8.4-1.8c-4.4-2-6.6-6-5.8-10.4c1-5,4.3-8,9.5-8.1
			c3.5-0.1,7,0.7,10.1,2.5C123.4,360.8,125.1,363.4,125.2,365.6z"/>
		<path class="st10" d="M406.4,237.7c-2.9-1.7-5.5-3.2-8.4-4.8c3.5-3,6.8-5.8,10.1-8.5c0.2,0.1,0.3,0.2,0.5,0.3
			C407.8,228.9,407.1,233.2,406.4,237.7z"/>
		<path class="st11" d="M159,544.1c4.2-2.2,8-4.2,11.8-6.3c0.1,0.1,0.2,0.2,0.3,0.3c-1.6,4-3.2,8-4.9,12.4
			C163.8,548.4,161.6,546.4,159,544.1z"/>
		<path class="st12" d="M244.8,595.4c-2.9-0.9-5.8-1.7-9-2.6c2.7-3.7,5.2-7.1,7.8-10.6C244.4,583.9,245.2,592.5,244.8,595.4z"/>
		<path class="st13" d="M495.2,489.3c-3.9-0.3-8.2-0.6-12.5-0.9c0.1-1.7,1.8-5.7,3.7-8.7C489.4,482.9,492.3,486.1,495.2,489.3z"/>
		<path class="st1" d="M191.9,364.8c15.6-48.8,63.8-85.1,118.9-83.3c30.7,1,57.4,12.1,79.8,32.9c15,13.9,25.7,30.7,32.3,50.4
			C345.7,364.8,268.9,364.8,191.9,364.8z"/>
		<path class="st14" d="M193.8,447c75.7,0,151.2,0,226.8,0c-0.2,6-13.6,28.2-24.1,39.3C375.9,508,350.8,521,321,524.3
			C256.7,531.5,208.6,488.9,193.8,447z"/>
		<path class="st1" d="M189.8,435.6c-2.1-7.7-3.5-15.4-3.9-23.4c81-0.1,161.8-0.3,242.9-0.4c-0.3,7.8-1.7,15.3-3.7,23
			c-0.8,0-1.5,0-2.2,0c-15.3,0.1-30.6,0.1-45.8,0.2c-39,0.1-78.1,0.2-117.1,0.4c-22.6,0.1-45.1,0.2-67.7,0.3
			C191.5,435.6,190.8,435.6,189.8,435.6z"/>
		<path class="st1" d="M185.6,399.4c0.2-7.9,1.2-15.4,2.9-23c79.2,0,158.2,0,237.6,0c1.7,7,2.7,14.4,2.9,22.1
			C347.8,398.8,266.9,399.1,185.6,399.4z"/>
	</g>
</g>
</svg>
